Coordinates
version=1
nRows=16
nColumns=40
inDegrees=yes

Units are S.I. units (second, meters, Newtons, ...)
Angles are in degrees.

endheader
time	pelvis_tilt	pelvis_list	pelvis_rotation	pelvis_tx	pelvis_ty	pelvis_tz	hip_flexion_r	hip_adduction_r	hip_rotation_r	knee_angle_r	knee_angle_r_beta	ankle_angle_r	subtalar_angle_r	mtp_angle_r	hip_flexion_l	hip_adduction_l	hip_rotation_l	knee_angle_l	knee_angle_l_beta	ankle_angle_l	subtalar_angle_l	mtp_angle_l	lumbar_extension	lumbar_bending	lumbar_rotation	arm_flex_r	arm_add_r	arm_rot_r	elbow_flex_r	pro_sup_r	wrist_flex_r	wrist_dev_r	arm_flex_l	arm_add_l	arm_rot_l	elbow_flex_l	pro_sup_l	wrist_flex_l	wrist_dev_l
     48.42000000	     -3.44554670	     -4.16138693	     -8.66915796	      0.97161521	      0.92687645	      0.41432947	     24.58658528	     -1.70544969	     -6.45307034	     21.14521406	     21.14521406	      7.91665920	      4.35842484	      0.48805943	      6.58620802	     -2.70888008	    -10.72053100	     20.60452550	     20.60452550	     19.02297075	    -13.57723527	      0.21815213	    -10.34622645	      6.96977942	      1.38098580	    -15.41298123	    -13.61282610	     -8.97647245	     26.60771414	     46.31775474	      0.00000000	      0.00000000	     35.48393088	    -19.79187434	      1.56111306	     58.35522941	     46.70385684	      0.00000000	      0.00000000
     48.43985714	     -3.58148705	     -3.93779989	     -9.04822662	      0.97259481	      0.92613323	      0.41724538	     24.26119054	     -1.64613502	     -6.79229197	     19.70164750	     19.70164750	      7.48824228	      5.91304060	      0.96675979	      5.81149186	     -2.56196583	    -11.21799797	     19.87075158	     19.87075158	     19.15430369	    -13.21754129	     -0.18606386	    -10.23678844	      6.88923870	      1.51988959	    -16.89782761	    -13.42136033	     -9.07603253	     26.66627670	     46.30791312	      0.00000000	      0.00000000	     36.29718590	    -20.14766392	      0.73750497	     59.70192173	     46.80059649	      0.00000000	      0.00000000
     48.45971429	     -3.68628105	     -3.74447435	     -9.39066204	      0.97382070	      0.92510358	      0.42042062	     24.08393654	     -1.61990745	     -7.13714893	     19.05640231	     19.05640231	      7.04609931	      7.13448116	      0.86830321	      5.06660765	     -2.48001655	    -11.73353036	     19.28585734	     19.28585734	     19.08496891	    -12.94630837	     -1.31770275	    -10.20328095	      6.83215371	      1.47194760	    -18.37562176	    -13.25045748	     -9.39829977	     27.67903906	     46.27314694	      0.00000000	      0.00000000	     36.48595106	    -20.38586947	     -1.43751940	     62.22289483	     47.02505292	      0.00000000	      0.00000000
     48.47957143	     -3.92452361	     -3.62286976	     -9.64343494	      0.97514727	      0.92384359	      0.42394093	     24.10028846	     -1.43486486	     -7.01337571	     18.91063888	     18.91063888	      6.70879061	      7.30897402	      0.94103224	      4.64527946	     -2.50508620	    -11.89687862	     19.06982716	     19.06982716	     19.36334471	    -12.99033630	     -1.39110495	     -9.89852222	      6.88296655	      1.39859197	    -19.19780491	    -13.05012698	     -9.38590640	     27.38854153	     46.27684498	      0.00000000	      0.00000000	     37.32478640	    -21.03323803	     -1.80629577	     62.63341152	     47.06657163	      0.00000000	      0.00000000
     48.49942857	     -4.09638422	     -3.56095212	     -9.86688432	      0.97673254	      0.92283430	      0.42771225	     23.99025324	     -1.21698785	     -6.92819233	     18.99545080	     18.99545080	      6.37294864	      7.36861721	      0.89505056	      4.08878137	     -2.59699176	    -12.07536371	     18.78020703	     18.78020703	     19.59233851	    -12.93417585	     -1.43619817	     -9.70543354	      6.97107067	      1.51538575	    -19.90033590	    -12.78133039	     -9.35448616	     27.11127983	     46.27952032	      0.00000000	      0.00000000	     38.09947733	    -21.47474612	     -2.22299457	     63.22630118	     47.11385145	      0.00000000	      0.00000000
     48.51928571	     -4.02880318	     -3.50547588	    -10.10590142	      0.97876471	      0.92219671	      0.43189041	     23.57508696	     -0.93603993	     -6.43355829	     19.15134510	     19.15134510	      5.08643379	      6.47429527	     -2.34340157	      3.09741828	     -2.72459914	    -12.69388572	     18.24820454	     18.24820454	     19.75230314	    -12.17214210	     -1.85503933	     -9.87853650	      6.93494372	      1.35693410	    -20.07934163	    -12.53774907	     -9.36765171	     26.64117099	     46.30512272	      0.00000000	      0.00000000	     37.48933848	    -21.10363947	     -5.88120182	     66.98729670	     47.45315612	      0.00000000	      0.00000000
     48.53914286	     -4.14686370	     -3.46467446	    -10.29914106	      0.98067409	      0.92140393	      0.43625636	     23.52659685	     -0.66038999	     -6.00024097	     19.85283809	     19.85283809	      5.00694968	      5.85945082	     -2.75131771	      2.49312859	     -2.87164608	    -12.85287836	     18.03609013	     18.03609013	     19.97111734	    -12.08880884	     -1.79493643	     -9.76468862	      6.96600478	      1.73492519	    -20.42100611	    -12.27667863	     -9.24035013	     26.20826348	     46.31197024	      0.00000000	      0.00000000	     38.12559597	    -21.23180856	     -6.29235826	     67.84240434	     47.50361442	      0.00000000	      0.00000000
     48.55900000	     -4.35130511	     -3.58622782	    -10.36029695	      0.98265969	      0.92086388	      0.44078309	     23.39842472	     -0.27141076	     -5.93484371	     20.41683364	     20.41683364	      5.05242662	      5.60717657	     -2.92681988	      2.01245908	     -3.24765389	    -12.88435473	     17.90939647	     17.90939647	     20.04396357	    -12.07098073	     -1.73038122	     -9.55586234	      7.18909229	      1.79909026	    -20.61137034	    -12.08652876	     -9.20550655	     26.07083212	     46.31336962	      0.00000000	      0.00000000	     38.67742980	    -21.56615121	     -6.55732292	     68.20541274	     47.53294678	      0.00000000	      0.00000000
     48.57885714	     -4.42907444	     -3.59417843	    -10.44411617	      0.98463974	      0.92052080	      0.44560361	     23.34557928	      0.15585404	     -5.06564922	     21.31543024	     21.31543024	      5.05089835	      3.91643466	     -3.67891263	      1.42959197	     -3.58829811	    -13.35982949	     17.88754764	     17.88754764	     20.46379740	    -11.15840325	     -1.30914680	     -9.54261780	      7.16411255	      1.44169216	    -19.91635475	    -12.06252344	     -8.95278074	     24.99778181	     46.35977143	      0.00000000	      0.00000000	     38.12806037	    -21.71709634	     -8.95388922	     70.79776168	     47.74612219	      0.00000000	      0.00000000
     48.59871429	     -4.66852263	     -3.69317062	    -10.39604669	      0.98663728	      0.92042341	      0.45039490	     23.14714756	      0.52637659	     -5.09101193	     21.72113188	     21.72113188	      5.31913539	      3.72413527	     -3.81293830	      1.03520588	     -3.99951255	    -13.39703658	     17.80755059	     17.80755059	     20.30811764	    -11.12853424	     -1.18258877	     -9.26120852	      7.25677249	      1.45370184	    -19.87698486	    -11.95785968	     -8.93068029	     24.98721073	     46.35883129	      0.00000000	      0.00000000	     38.55697063	    -21.86567351	     -9.05298908	     71.02708488	     47.76005646	      0.00000000	      0.00000000
     48.61857143	     -4.71314505	     -3.69839295	    -10.35379371	      0.98851281	      0.92065165	      0.45532911	     23.01444729	      0.88262163	     -4.54906118	     22.56512525	     22.56512525	      5.76340817	      2.49758405	     -3.62285974	      0.38895399	     -4.31084641	    -13.64187076	     17.62783132	     17.62783132	     20.24116405	    -10.55909756	     -1.08664368	     -9.32617134	      7.19638587	      1.70025519	    -19.66150724	    -11.85942753	     -8.86553922	     24.87431748	     46.36264706	      0.00000000	      0.00000000	     38.98400408	    -21.82250644	     -9.47467556	     71.90682436	     47.80754294	      0.00000000	      0.00000000
     48.63842857	     -4.96163630	     -3.64005654	    -10.23198708	      0.99028047	      0.92100102	      0.46006651	     22.74554087	      1.07539460	     -4.61187384	     22.67882599	     22.67882599	      5.99198771	      2.42717933	     -3.68789258	      0.14036792	     -4.58750271	    -13.58617491	     17.68187627	     17.68187627	     19.96546372	    -10.46252370	     -0.98042714	     -8.99224318	      7.10376506	      1.81462840	    -19.52717296	    -11.89213496	     -8.86706595	     24.91984846	     46.36222579	      0.00000000	      0.00000000	     39.08482279	    -21.87875350	     -9.51714926	     71.97761273	     47.81243639	      0.00000000	      0.00000000
     48.65828571	     -5.10414967	     -3.95839943	    -10.05611357	      0.99193940	      0.92169117	      0.46517510	     22.35792151	      1.81007543	     -4.24386961	     22.92868805	     22.92868805	      6.70576236	      1.23066783	     -2.51256316	     -0.34681679	     -5.42791097	    -14.30435666	     17.68476050	     17.68476050	     19.95494859	     -9.03420169	     -1.06552225	     -9.05207838	      7.32540515	      1.53262554	    -18.77191184	    -11.97866404	     -8.86026208	     24.91636578	     46.37382634	      0.00000000	      0.00000000	     39.08480333	    -21.86934750	    -10.42089140	     73.28117642	     47.89754201	      0.00000000	      0.00000000
     48.67814286	     -5.35381901	     -3.97046577	     -9.82648203	      0.99337035	      0.92229564	      0.46985062	     22.07231007	      2.04617401	     -4.47908063	     22.97520988	     22.97520988	      7.08200965	      1.17903702	     -2.50659809	     -0.53314615	     -5.81708249	    -14.24678538	     17.77858864	     17.77858864	     19.60923095	     -8.85726536	     -0.93874907	     -8.82397484	      7.25068650	      1.50343394	    -18.26516891	    -12.07800161	     -8.86123691	     25.07181186	     46.37268721	      0.00000000	      0.00000000	     39.21890664	    -21.75596107	    -10.43104476	     73.40973882	     47.90133612	      0.00000000	      0.00000000
     48.69800000	     -5.58607473	     -3.87366714	     -9.63283522	      0.99471010	      0.92296017	      0.47446621	     21.78863592	      2.18328685	     -4.61343029	     22.98531491	     22.98531491	      7.37562658	      1.10660228	     -2.56615547	     -0.69946451	     -6.07141323	    -14.17691072	     17.88801011	     17.88801011	     19.23708537	     -8.73327079	     -0.81979105	     -8.57851268	      7.04613367	      1.68000354	    -18.02296143	    -12.16733199	     -8.86730518	     25.15478278	     46.37216127	      0.00000000	      0.00000000	     39.20182501	    -21.75418815	    -10.44657707	     73.42647580	     47.90258686	      0.00000000	      0.00000000
     48.71785714	     -5.73032102	     -4.14933952	     -9.27485516	      0.99578916	      0.92397552	      0.47895162	     20.99879869	      2.66878702	     -5.11253920	     22.33710266	     22.33710266	      7.80582799	      1.28574674	     -1.97275714	     -0.73402415	     -6.88785641	    -14.36376491	     18.49560605	     18.49560605	     19.00964993	     -8.08473709	     -0.99155145	     -8.55805475	      7.23352737	      1.34220922	    -16.89426653	    -12.40772110	     -8.89007107	     25.41007751	     46.37587941	      0.00000000	      0.00000000	     39.04864283	    -21.45533963	    -10.59749349	     73.61175093	     47.91515220	      0.00000000	      0.00000000
